<svg width="99" height="57" viewBox="0 0 99 57" fill="none" xmlns="http://www.w3.org/2000/svg">
<path d="M13.1774 40.0197C12.2862 40.5222 11.7161 41.1863 11.7184 41.8897L11.8728 48.8706C11.8793 49.1708 12.1915 49.4281 12.6886 49.5219L15.0477 49.966L19.9894 52.8134C20.9719 53.3735 22.5387 53.366 23.513 52.8035L27.1395 50.7097C28.0032 50.2111 28.0009 49.4 27.1347 48.9063L23.3876 46.7707C22.9671 46.5311 22.966 46.142 23.3851 45.9L23.6016 45.775C24.0208 45.533 24.6991 45.5311 25.1196 45.7707L28.8667 47.9063C29.7329 48.4 31.1468 48.396 32.0111 47.897L35.6372 45.8036C36.6115 45.2411 36.6089 44.3394 35.6315 43.7824L30.636 40.9661L29.8463 39.6159C29.679 39.3287 29.2075 39.1355 28.6792 39.1365C28.2281 39.1377 17.6197 39.1674 16.5354 39.1704C15.2776 39.1739 14.0668 39.5171 13.1774 40.0197ZM14.915 41.01C15.3593 40.7634 15.953 40.6031 16.5394 40.6014C17.5464 40.5981 26.1425 40.5741 27.8158 40.5699L28.3876 41.5784C28.4495 41.6833 28.5495 41.7651 28.6867 41.8423L33.8995 44.7824C33.9116 44.7893 33.9178 44.8027 33.8996 44.8132L30.4355 46.8132L26.8517 44.7707C25.4711 43.9839 23.2401 43.9902 21.864 44.7847L21.6475 44.9097C20.2714 45.7042 20.2751 46.9838 21.6557 47.7706L25.2395 49.8131L21.7754 51.8131C21.7577 51.8233 21.7388 51.8233 21.7214 51.8134L16.5626 48.8422C16.427 48.764 16.2843 48.7069 16.1009 48.6722L14.3117 48.3356L14.1576 41.8829C14.1567 41.5754 14.4689 41.2565 14.915 41.01Z" fill="white"/>
<path d="M47.4095 36.0081L34.4556 31.8883L36.419 30.7548L45.6639 33.9406L45.7574 33.8866L40.2669 28.5332L42.053 27.5019L51.4309 30.6167L51.5195 30.5656L45.901 25.2803L47.8643 24.1468L55.1299 31.5507L53.3289 32.5904L44.2179 29.7124L44.1392 29.7578L49.2104 34.9683L47.4095 36.0081ZM60.0249 28.9001C59.546 29.1766 59.029 29.3769 58.4741 29.501C57.9191 29.6213 57.3607 29.6492 56.7986 29.5848C56.2399 29.5185 55.712 29.3438 55.2151 29.0605C54.7873 28.8167 54.5122 28.5696 54.39 28.3193C54.2677 28.069 54.2588 27.8174 54.3632 27.5645C54.4676 27.3117 54.6477 27.0624 54.9033 26.8166C55.1588 26.5671 55.4506 26.3251 55.7785 26.0904C56.1753 25.8085 56.4934 25.5777 56.7327 25.398C56.9688 25.2164 57.1096 25.0671 57.1553 24.9501C57.201 24.8293 57.1382 24.7202 56.9671 24.6227L56.9375 24.6058C56.5656 24.3938 56.1678 24.2932 55.744 24.3038C55.3201 24.3144 54.9016 24.439 54.4882 24.6776C54.0519 24.9295 53.8013 25.1837 53.7363 25.4402C53.6746 25.6949 53.7294 25.9218 53.9008 26.1211L52.0007 26.9463C51.6712 26.608 51.5027 26.2635 51.4951 25.913C51.4843 25.5606 51.6197 25.2143 51.9013 24.8743C52.1796 24.5324 52.5829 24.2089 53.111 23.904C53.4751 23.6938 53.8804 23.5089 54.3268 23.3493C54.7732 23.1898 55.2444 23.0801 55.7404 23.0202C56.233 22.9586 56.7374 22.9713 57.2535 23.0584C57.7729 23.1437 58.2844 23.3298 58.7879 23.6168L63.8625 26.5089L62.1501 27.4975L61.1085 26.9039L61.0495 26.938C61.1518 27.1206 61.1968 27.3212 61.1842 27.5398C61.1717 27.7547 61.0737 27.9793 60.8904 28.2135C60.707 28.444 60.4185 28.6728 60.0249 28.9001ZM59.1744 27.8847C59.5319 27.6783 59.7712 27.459 59.8921 27.2268C60.0097 26.9927 60.0206 26.7675 59.9247 26.551C59.8321 26.3326 59.6459 26.1437 59.3662 25.9843L58.4727 25.4751C58.463 25.5335 58.4107 25.6128 58.3157 25.713C58.2239 25.8113 58.1109 25.9162 57.9765 26.0278C57.8421 26.1393 57.706 26.2481 57.5683 26.354C57.4306 26.46 57.3109 26.5517 57.2093 26.6293C56.9798 26.8033 56.8012 26.9744 56.6735 27.1425C56.5458 27.3106 56.4954 27.4719 56.5221 27.6263C56.5455 27.779 56.6724 27.9209 56.9028 28.0522C57.2319 28.2397 57.6001 28.3122 58.0074 28.2696C58.4147 28.227 58.8037 28.0987 59.1744 27.8847ZM62.2993 22.3144L66.742 24.8464L64.9608 25.8748L57.3785 21.5535L59.081 20.5705L60.3694 21.3048L60.458 21.2537C60.2073 20.9113 60.1472 20.559 60.2776 20.1968C60.4113 19.8327 60.7602 19.4877 61.3245 19.162C61.846 18.8608 62.4123 18.6623 63.0231 18.5663C63.6373 18.4685 64.2632 18.479 64.901 18.5979C65.542 18.7148 66.1637 18.9468 66.7659 19.2938L71.5937 22.0453L69.8125 23.0737L65.2611 20.4797C64.7543 20.1909 64.2265 20.0407 63.6778 20.029C63.1323 20.0154 62.63 20.1412 62.1707 20.4064C61.8591 20.5863 61.651 20.7857 61.5465 21.0047C61.4419 21.2198 61.4491 21.4403 61.568 21.6662C61.6902 21.8901 61.934 22.1062 62.2993 22.3144ZM68.9035 14.8995L70.2857 15.6872L65.9408 18.1958L64.5586 17.408L68.9035 14.8995ZM63.8147 15.7534L65.596 14.725L72.7142 18.7819C72.9545 18.9188 73.1748 19.003 73.3754 19.0345C73.5759 19.0622 73.7598 19.0541 73.9273 19.0103C74.0947 18.9665 74.2523 18.902 74.3999 18.8167C74.5114 18.7523 74.6049 18.6889 74.6803 18.6265C74.759 18.5622 74.8163 18.5121 74.8524 18.4762L76.5495 19.0991C76.4873 19.1728 76.3874 19.272 76.2497 19.3968C76.1153 19.5197 75.9251 19.6559 75.6791 19.8055C75.2462 20.0706 74.7768 20.2641 74.2712 20.3862C73.7622 20.5063 73.2448 20.537 72.719 20.4781C72.1964 20.4174 71.6998 20.251 71.2292 19.9791L63.8147 15.7534ZM80.6956 16.9602C79.9378 17.3977 79.1254 17.6855 78.2584 17.8237C77.3913 17.958 76.5189 17.9444 75.6412 17.7829C74.7602 17.6195 73.9231 17.3118 73.13 16.8598C72.3501 16.4153 71.8132 15.9399 71.5193 15.4337C71.2255 14.9238 71.1813 14.4207 71.387 13.9244C71.5893 13.4262 72.0513 12.9688 72.773 12.5522C73.2388 12.2832 73.7541 12.0726 74.3188 11.9202C74.8835 11.7641 75.4812 11.6833 76.1121 11.6777C76.7462 11.6703 77.397 11.7514 78.0645 11.9211C78.7286 12.0888 79.3931 12.3622 80.0579 12.741L80.6058 13.0533L74.4108 16.63L73.2063 15.9436L77.6939 13.3526C77.3483 13.1595 76.9701 13.0286 76.5592 12.96C76.145 12.8895 75.731 12.8851 75.3172 12.9465C74.9067 13.0061 74.5308 13.1344 74.1896 13.3313C73.8255 13.5416 73.5945 13.7769 73.4967 14.0372C73.3956 14.2957 73.4111 14.5511 73.5432 14.8033C73.6753 15.0517 73.9092 15.2734 74.2449 15.4685L75.2963 16.0678C75.7373 16.3191 76.1962 16.4884 76.6728 16.5756C77.1462 16.661 77.6111 16.6682 78.0677 16.5972C78.5209 16.5243 78.941 16.3761 79.3281 16.1526C79.5873 16.003 79.7856 15.847 79.9232 15.6845C80.0574 15.5201 80.1292 15.3522 80.1386 15.1807C80.148 15.0091 80.0851 14.8397 79.9499 14.6723L81.8007 13.819C82.1367 14.1309 82.3216 14.4659 82.3555 14.8239C82.3893 15.1781 82.2687 15.5385 81.9938 15.9049C81.7155 16.2694 81.2828 16.6212 80.6956 16.9602ZM87.6604 12.9221C87.0666 13.2649 86.3822 13.4845 85.607 13.5809C84.8319 13.6773 84.0169 13.6381 83.1622 13.4633C82.3074 13.2885 81.4637 12.9639 80.6311 12.4894C79.7886 12.0092 79.2156 11.5245 78.9119 11.0354C78.6082 10.5424 78.5445 10.0751 78.7207 9.63361C78.8936 9.1902 79.2704 8.80089 79.851 8.46566C80.2939 8.20998 80.7337 8.04289 81.1705 7.96439C81.6039 7.88402 82.0096 7.85556 82.3876 7.87901C82.7622 7.90058 83.0876 7.93736 83.3637 7.98937L83.4375 7.94675L79.6563 5.7917L81.4424 4.76045L91.5522 10.5223L89.8004 11.5336L88.6058 10.8528L88.4976 10.9153C88.59 11.0733 88.653 11.2617 88.6864 11.4802C88.7166 11.6969 88.6614 11.9288 88.5208 12.1761C88.3802 12.4234 88.0934 12.6721 87.6604 12.9221ZM86.6913 11.7996C87.0685 11.5818 87.288 11.338 87.3496 11.0683C87.408 10.7968 87.3218 10.5162 87.091 10.2266C86.8602 9.93695 86.4996 9.65241 86.0093 9.37295C85.5189 9.09348 85.0239 8.89037 84.5241 8.7636C84.0276 8.63494 83.5461 8.5901 83.0797 8.6291C82.6165 8.66621 82.193 8.79555 81.8092 9.01714C81.4122 9.24631 81.1846 9.49668 81.1262 9.76825C81.0678 10.0398 81.154 10.3185 81.3848 10.6044C81.6156 10.8902 81.9663 11.1672 82.4369 11.4354C82.9108 11.7055 83.401 11.9077 83.9073 12.042C84.4137 12.1725 84.9067 12.222 85.3863 12.1905C85.8659 12.1553 86.3009 12.025 86.6913 11.7996Z" fill="white"/>
</svg>
