<svg width="1280" height="720" viewBox="0 0 1280 720" fill="none" xmlns="http://www.w3.org/2000/svg">
<g clip-path="url(#clip0_1_129)">
<rect width="1280" height="720" fill="black"/>
<path d="M327.889 666.364H329.571L333.525 676.023H333.661L337.616 666.364H339.298V678H337.98V669.159H337.866L334.23 678H332.957L329.321 669.159H329.207V678H327.889V666.364ZM344.523 678V666.364H348.455C349.364 666.364 350.11 666.519 350.694 666.83C351.277 667.136 351.709 667.559 351.989 668.097C352.269 668.634 352.41 669.246 352.41 669.932C352.41 670.617 352.269 671.225 351.989 671.756C351.709 672.286 351.279 672.703 350.699 673.006C350.12 673.305 349.379 673.455 348.478 673.455H345.296V672.182H348.432C349.053 672.182 349.553 672.091 349.932 671.909C350.315 671.727 350.591 671.47 350.762 671.136C350.936 670.799 351.023 670.398 351.023 669.932C351.023 669.466 350.936 669.059 350.762 668.71C350.588 668.362 350.309 668.093 349.927 667.903C349.544 667.71 349.038 667.614 348.41 667.614H345.932V678H344.523ZM350 672.773L352.864 678H351.228L348.41 672.773H350ZM357.953 678.091C357.673 678.091 357.432 677.991 357.231 677.79C357.031 677.589 356.93 677.348 356.93 677.068C356.93 676.788 357.031 676.547 357.231 676.347C357.432 676.146 357.673 676.045 357.953 676.045C358.233 676.045 358.474 676.146 358.675 676.347C358.875 676.547 358.976 676.788 358.976 677.068C358.976 677.254 358.928 677.424 358.834 677.58C358.743 677.735 358.62 677.86 358.464 677.955C358.313 678.045 358.142 678.091 357.953 678.091ZM364.058 666.364V667.386C364.058 667.697 364.001 668.028 363.887 668.381C363.777 668.729 363.614 669.068 363.398 669.398C363.186 669.723 362.929 670.008 362.626 670.25L361.898 669.659C362.137 669.318 362.344 668.964 362.518 668.597C362.696 668.225 362.785 667.83 362.785 667.409V666.364H364.058ZM366.967 666.364V667.386C366.967 667.697 366.91 668.028 366.796 668.381C366.686 668.729 366.523 669.068 366.308 669.398C366.095 669.723 365.838 670.008 365.535 670.25L364.808 669.659C365.046 669.318 365.253 668.964 365.427 668.597C365.605 668.225 365.694 667.83 365.694 667.409V666.364H366.967ZM377.915 669.273C377.847 668.697 377.57 668.25 377.085 667.932C376.601 667.614 376.006 667.455 375.301 667.455C374.786 667.455 374.335 667.538 373.949 667.705C373.566 667.871 373.267 668.1 373.051 668.392C372.839 668.684 372.733 669.015 372.733 669.386C372.733 669.697 372.807 669.964 372.955 670.188C373.106 670.407 373.299 670.591 373.534 670.739C373.769 670.883 374.015 671.002 374.273 671.097C374.53 671.187 374.767 671.261 374.983 671.318L376.165 671.636C376.468 671.716 376.805 671.826 377.176 671.966C377.551 672.106 377.909 672.297 378.25 672.54C378.595 672.778 378.879 673.085 379.102 673.46C379.326 673.835 379.438 674.295 379.438 674.841C379.438 675.47 379.273 676.038 378.943 676.545C378.618 677.053 378.14 677.456 377.511 677.756C376.886 678.055 376.127 678.205 375.233 678.205C374.4 678.205 373.678 678.07 373.068 677.801C372.462 677.532 371.985 677.157 371.636 676.676C371.292 676.195 371.097 675.636 371.051 675H372.506C372.544 675.439 372.691 675.803 372.949 676.091C373.21 676.375 373.54 676.587 373.938 676.727C374.339 676.864 374.771 676.932 375.233 676.932C375.771 676.932 376.254 676.845 376.682 676.67C377.11 676.492 377.449 676.246 377.699 675.932C377.949 675.614 378.074 675.242 378.074 674.818C378.074 674.432 377.966 674.117 377.75 673.875C377.534 673.633 377.25 673.436 376.898 673.284C376.546 673.133 376.165 673 375.756 672.886L374.324 672.477C373.415 672.216 372.695 671.843 372.165 671.358C371.635 670.873 371.369 670.239 371.369 669.455C371.369 668.803 371.546 668.235 371.898 667.75C372.254 667.261 372.731 666.883 373.33 666.614C373.932 666.341 374.604 666.205 375.347 666.205C376.097 666.205 376.763 666.339 377.347 666.608C377.93 666.873 378.392 667.237 378.733 667.699C379.078 668.161 379.26 668.686 379.279 669.273H377.915ZM385.154 666.364V667.386C385.154 667.697 385.098 668.028 384.984 668.381C384.874 668.729 384.711 669.068 384.495 669.398C384.283 669.723 384.026 670.008 383.723 670.25L382.995 669.659C383.234 669.318 383.44 668.964 383.615 668.597C383.793 668.225 383.882 667.83 383.882 667.409V666.364H385.154ZM388.063 666.364V667.386C388.063 667.697 388.007 668.028 387.893 668.381C387.783 668.729 387.62 669.068 387.404 669.398C387.192 669.723 386.935 670.008 386.632 670.25L385.904 669.659C386.143 669.318 386.349 668.964 386.524 668.597C386.702 668.225 386.791 667.83 386.791 667.409V666.364H388.063ZM401.662 678L398.48 666.364H399.912L402.344 675.841H402.457L404.935 666.364H406.525L409.003 675.841H409.116L411.548 666.364H412.98L409.798 678H408.344L405.775 668.727H405.685L403.116 678H401.662ZM416.707 678H415.229L419.502 666.364H420.957L425.229 678H423.752L420.275 668.205H420.184L416.707 678ZM417.252 673.455H423.207V674.705H417.252V673.455ZM438.669 666.364V678H437.306L430.965 668.864H430.851V678H429.442V666.364H430.806L437.169 675.523H437.283V666.364H438.669ZM443.252 667.614V666.364H451.98V667.614H448.321V678H446.911V667.614H443.252ZM456.554 678V666.364H463.577V667.614H457.963V671.545H463.213V672.795H457.963V676.75H463.668V678H456.554ZM472.108 678H468.517V666.364H472.267C473.396 666.364 474.362 666.597 475.165 667.062C475.968 667.525 476.583 668.189 477.011 669.057C477.439 669.92 477.653 670.955 477.653 672.159C477.653 673.371 477.437 674.415 477.006 675.29C476.574 676.161 475.945 676.831 475.119 677.301C474.293 677.767 473.29 678 472.108 678ZM469.926 676.75H472.017C472.979 676.75 473.776 676.564 474.409 676.193C475.042 675.822 475.513 675.294 475.824 674.608C476.134 673.922 476.29 673.106 476.29 672.159C476.29 671.22 476.136 670.411 475.829 669.733C475.523 669.051 475.064 668.528 474.454 668.165C473.845 667.797 473.085 667.614 472.176 667.614H469.926V676.75ZM491.431 678L488.249 666.364H489.681L492.112 675.841H492.226L494.703 666.364H496.294L498.771 675.841H498.885L501.317 666.364H502.749L499.567 678H498.112L495.544 668.727H495.453L492.885 678H491.431ZM506.904 678V666.364H513.927V667.614H508.313V671.545H513.563V672.795H508.313V676.75H514.018V678H506.904ZM518.867 678V666.364H520.276V676.75H525.685V678H518.867ZM539.177 670H537.768C537.685 669.595 537.539 669.239 537.331 668.932C537.126 668.625 536.876 668.367 536.581 668.159C536.289 667.947 535.965 667.788 535.609 667.682C535.253 667.576 534.882 667.523 534.496 667.523C533.791 667.523 533.153 667.701 532.581 668.057C532.013 668.413 531.56 668.938 531.223 669.631C530.89 670.324 530.723 671.174 530.723 672.182C530.723 673.189 530.89 674.04 531.223 674.733C531.56 675.426 532.013 675.951 532.581 676.307C533.153 676.663 533.791 676.841 534.496 676.841C534.882 676.841 535.253 676.788 535.609 676.682C535.965 676.576 536.289 676.419 536.581 676.21C536.876 675.998 537.126 675.739 537.331 675.432C537.539 675.121 537.685 674.765 537.768 674.364H539.177C539.071 674.958 538.878 675.491 538.598 675.96C538.318 676.43 537.969 676.83 537.552 677.159C537.136 677.485 536.668 677.733 536.149 677.903C535.634 678.074 535.083 678.159 534.496 678.159C533.503 678.159 532.621 677.917 531.848 677.432C531.075 676.947 530.467 676.258 530.024 675.364C529.581 674.47 529.359 673.409 529.359 672.182C529.359 670.955 529.581 669.894 530.024 669C530.467 668.106 531.075 667.417 531.848 666.932C532.621 666.447 533.503 666.205 534.496 666.205C535.083 666.205 535.634 666.29 536.149 666.46C536.668 666.631 537.136 666.881 537.552 667.21C537.969 667.536 538.318 667.934 538.598 668.403C538.878 668.869 539.071 669.402 539.177 670ZM553.673 672.182C553.673 673.409 553.451 674.47 553.008 675.364C552.565 676.258 551.957 676.947 551.184 677.432C550.411 677.917 549.529 678.159 548.536 678.159C547.544 678.159 546.661 677.917 545.888 677.432C545.116 676.947 544.508 676.258 544.065 675.364C543.621 674.47 543.4 673.409 543.4 672.182C543.4 670.955 543.621 669.894 544.065 669C544.508 668.106 545.116 667.417 545.888 666.932C546.661 666.447 547.544 666.205 548.536 666.205C549.529 666.205 550.411 666.447 551.184 666.932C551.957 667.417 552.565 668.106 553.008 669C553.451 669.894 553.673 670.955 553.673 672.182ZM552.309 672.182C552.309 671.174 552.14 670.324 551.803 669.631C551.47 668.938 551.017 668.413 550.445 668.057C549.877 667.701 549.241 667.523 548.536 667.523C547.832 667.523 547.193 667.701 546.621 668.057C546.053 668.413 545.601 668.938 545.263 669.631C544.93 670.324 544.763 671.174 544.763 672.182C544.763 673.189 544.93 674.04 545.263 674.733C545.601 675.426 546.053 675.951 546.621 676.307C547.193 676.663 547.832 676.841 548.536 676.841C549.241 676.841 549.877 676.663 550.445 676.307C551.017 675.951 551.47 675.426 551.803 674.733C552.14 674.04 552.309 673.189 552.309 672.182ZM558.442 666.364H560.124L564.078 676.023H564.215L568.169 666.364H569.851V678H568.533V669.159H568.419L564.783 678H563.51L559.874 669.159H559.76V678H558.442V666.364ZM575.076 678V666.364H582.099V667.614H576.485V671.545H581.735V672.795H576.485V676.75H582.19V678H575.076ZM593.939 678V666.364H598.007C598.818 666.364 599.486 666.504 600.013 666.784C600.539 667.061 600.931 667.434 601.189 667.903C601.446 668.369 601.575 668.886 601.575 669.455C601.575 669.955 601.486 670.367 601.308 670.693C601.134 671.019 600.903 671.277 600.615 671.466C600.331 671.655 600.022 671.795 599.689 671.886V672C600.045 672.023 600.403 672.148 600.763 672.375C601.122 672.602 601.424 672.928 601.666 673.352C601.908 673.777 602.03 674.295 602.03 674.909C602.03 675.492 601.897 676.017 601.632 676.483C601.367 676.949 600.948 677.318 600.376 677.591C599.804 677.864 599.06 678 598.143 678H593.939ZM595.348 676.75H598.143C599.064 676.75 599.717 676.572 600.104 676.216C600.494 675.856 600.689 675.42 600.689 674.909C600.689 674.515 600.588 674.152 600.388 673.818C600.187 673.481 599.901 673.212 599.53 673.011C599.158 672.807 598.719 672.705 598.211 672.705H595.348V676.75ZM595.348 671.477H597.961C598.386 671.477 598.768 671.394 599.109 671.227C599.454 671.061 599.727 670.826 599.927 670.523C600.132 670.22 600.234 669.864 600.234 669.455C600.234 668.943 600.056 668.509 599.7 668.153C599.344 667.794 598.78 667.614 598.007 667.614H595.348V671.477ZM607.222 678H605.745L610.018 666.364H611.472L615.745 678H614.268L610.79 668.205H610.7L607.222 678ZM607.768 673.455H613.722V674.705H607.768V673.455ZM628.774 670H627.365C627.282 669.595 627.136 669.239 626.928 668.932C626.723 668.625 626.473 668.367 626.178 668.159C625.886 667.947 625.562 667.788 625.206 667.682C624.85 667.576 624.479 667.523 624.092 667.523C623.388 667.523 622.75 667.701 622.178 668.057C621.61 668.413 621.157 668.938 620.82 669.631C620.486 670.324 620.32 671.174 620.32 672.182C620.32 673.189 620.486 674.04 620.82 674.733C621.157 675.426 621.61 675.951 622.178 676.307C622.75 676.663 623.388 676.841 624.092 676.841C624.479 676.841 624.85 676.788 625.206 676.682C625.562 676.576 625.886 676.419 626.178 676.21C626.473 675.998 626.723 675.739 626.928 675.432C627.136 675.121 627.282 674.765 627.365 674.364H628.774C628.668 674.958 628.475 675.491 628.195 675.96C627.914 676.43 627.566 676.83 627.149 677.159C626.733 677.485 626.265 677.733 625.746 677.903C625.231 678.074 624.68 678.159 624.092 678.159C623.1 678.159 622.217 677.917 621.445 677.432C620.672 676.947 620.064 676.258 619.621 675.364C619.178 674.47 618.956 673.409 618.956 672.182C618.956 670.955 619.178 669.894 619.621 669C620.064 668.106 620.672 667.417 621.445 666.932C622.217 666.447 623.1 666.205 624.092 666.205C624.68 666.205 625.231 666.29 625.746 666.46C626.265 666.631 626.733 666.881 627.149 667.21C627.566 667.536 627.914 667.934 628.195 668.403C628.475 668.869 628.668 669.402 628.774 670ZM633.451 678V666.364H634.86V672.136H634.997L640.224 666.364H642.065L637.179 671.614L642.065 678H640.36L636.315 672.591L634.86 674.227V678H633.451ZM663.007 672.182C663.007 673.409 662.785 674.47 662.342 675.364C661.899 676.258 661.291 676.947 660.518 677.432C659.746 677.917 658.863 678.159 657.871 678.159C656.878 678.159 655.996 677.917 655.223 677.432C654.45 676.947 653.842 676.258 653.399 675.364C652.956 674.47 652.734 673.409 652.734 672.182C652.734 670.955 652.956 669.894 653.399 669C653.842 668.106 654.45 667.417 655.223 666.932C655.996 666.447 656.878 666.205 657.871 666.205C658.863 666.205 659.746 666.447 660.518 666.932C661.291 667.417 661.899 668.106 662.342 669C662.785 669.894 663.007 670.955 663.007 672.182ZM661.643 672.182C661.643 671.174 661.475 670.324 661.138 669.631C660.804 668.938 660.352 668.413 659.78 668.057C659.211 667.701 658.575 667.523 657.871 667.523C657.166 667.523 656.528 667.701 655.956 668.057C655.388 668.413 654.935 668.938 654.598 669.631C654.265 670.324 654.098 671.174 654.098 672.182C654.098 673.189 654.265 674.04 654.598 674.733C654.935 675.426 655.388 675.951 655.956 676.307C656.528 676.663 657.166 676.841 657.871 676.841C658.575 676.841 659.211 676.663 659.78 676.307C660.352 675.951 660.804 675.426 661.138 674.733C661.475 674.04 661.643 673.189 661.643 672.182ZM667.776 678V666.364H671.708C672.617 666.364 673.363 666.519 673.947 666.83C674.53 667.136 674.962 667.559 675.242 668.097C675.522 668.634 675.663 669.246 675.663 669.932C675.663 670.617 675.522 671.225 675.242 671.756C674.962 672.286 674.532 672.703 673.952 673.006C673.373 673.305 672.632 673.455 671.731 673.455H668.549V672.182H671.685C672.307 672.182 672.807 672.091 673.185 671.909C673.568 671.727 673.844 671.47 674.015 671.136C674.189 670.799 674.276 670.398 674.276 669.932C674.276 669.466 674.189 669.059 674.015 668.71C673.841 668.362 673.562 668.093 673.18 667.903C672.797 667.71 672.291 667.614 671.663 667.614H669.185V678H667.776ZM673.254 672.773L676.117 678H674.481L671.663 672.773H673.254ZM696.538 666.364V678H695.174L688.833 668.864H688.72V678H687.311V666.364H688.674L695.038 675.523H695.152V666.364H696.538ZM703.167 666.364V678H701.758V666.364H703.167ZM717.756 670H716.346C716.263 669.595 716.117 669.239 715.909 668.932C715.704 668.625 715.454 668.367 715.159 668.159C714.867 667.947 714.543 667.788 714.187 667.682C713.831 667.576 713.46 667.523 713.074 667.523C712.369 667.523 711.731 667.701 711.159 668.057C710.591 668.413 710.138 668.938 709.801 669.631C709.468 670.324 709.301 671.174 709.301 672.182C709.301 673.189 709.468 674.04 709.801 674.733C710.138 675.426 710.591 675.951 711.159 676.307C711.731 676.663 712.369 676.841 713.074 676.841C713.46 676.841 713.831 676.788 714.187 676.682C714.543 676.576 714.867 676.419 715.159 676.21C715.454 675.998 715.704 675.739 715.909 675.432C716.117 675.121 716.263 674.765 716.346 674.364H717.756C717.649 674.958 717.456 675.491 717.176 675.96C716.896 676.43 716.547 676.83 716.131 677.159C715.714 677.485 715.246 677.733 714.727 677.903C714.212 678.074 713.661 678.159 713.074 678.159C712.081 678.159 711.199 677.917 710.426 677.432C709.653 676.947 709.045 676.258 708.602 675.364C708.159 674.47 707.937 673.409 707.937 672.182C707.937 670.955 708.159 669.894 708.602 669C709.045 668.106 709.653 667.417 710.426 666.932C711.199 666.447 712.081 666.205 713.074 666.205C713.661 666.205 714.212 666.29 714.727 666.46C715.246 666.631 715.714 666.881 716.131 667.21C716.547 667.536 716.896 667.934 717.176 668.403C717.456 668.869 717.649 669.402 717.756 670ZM722.433 678V666.364H729.455V667.614H723.842V671.545H729.092V672.795H723.842V676.75H729.546V678H722.433ZM740.659 667.614V666.364H749.386V667.614H745.727V678H744.318V667.614H740.659ZM763.294 672.182C763.294 673.409 763.073 674.47 762.63 675.364C762.186 676.258 761.579 676.947 760.806 677.432C760.033 677.917 759.151 678.159 758.158 678.159C757.166 678.159 756.283 677.917 755.51 677.432C754.738 676.947 754.13 676.258 753.686 675.364C753.243 674.47 753.022 673.409 753.022 672.182C753.022 670.955 753.243 669.894 753.686 669C754.13 668.106 754.738 667.417 755.51 666.932C756.283 666.447 757.166 666.205 758.158 666.205C759.151 666.205 760.033 666.447 760.806 666.932C761.579 667.417 762.186 668.106 762.63 669C763.073 669.894 763.294 670.955 763.294 672.182ZM761.931 672.182C761.931 671.174 761.762 670.324 761.425 669.631C761.092 668.938 760.639 668.413 760.067 668.057C759.499 667.701 758.863 667.523 758.158 667.523C757.454 667.523 756.815 667.701 756.243 668.057C755.675 668.413 755.222 668.938 754.885 669.631C754.552 670.324 754.385 671.174 754.385 672.182C754.385 673.189 754.552 674.04 754.885 674.733C755.222 675.426 755.675 675.951 756.243 676.307C756.815 676.663 757.454 676.841 758.158 676.841C758.863 676.841 759.499 676.663 760.067 676.307C760.639 675.951 761.092 675.426 761.425 674.733C761.762 674.04 761.931 673.189 761.931 672.182ZM774.964 666.364H776.646L780.6 676.023H780.737L784.691 666.364H786.373V678H785.055V669.159H784.941L781.305 678H780.032L776.396 669.159H776.282V678H774.964V666.364ZM791.598 678V666.364H798.621V667.614H793.007V671.545H798.257V672.795H793.007V676.75H798.712V678H791.598ZM803.561 678V666.364H810.583V667.614H804.97V671.545H810.22V672.795H804.97V676.75H810.674V678H803.561ZM814.887 667.614V666.364H823.614V667.614H819.955V678H818.546V667.614H814.887ZM834.089 666.364H835.702L838.93 671.795H839.066L842.293 666.364H843.907L839.702 673.205V678H838.293V673.205L834.089 666.364ZM857.401 672.182C857.401 673.409 857.179 674.47 856.736 675.364C856.293 676.258 855.685 676.947 854.912 677.432C854.139 677.917 853.257 678.159 852.264 678.159C851.272 678.159 850.389 677.917 849.617 677.432C848.844 676.947 848.236 676.258 847.793 675.364C847.35 674.47 847.128 673.409 847.128 672.182C847.128 670.955 847.35 669.894 847.793 669C848.236 668.106 848.844 667.417 849.617 666.932C850.389 666.447 851.272 666.205 852.264 666.205C853.257 666.205 854.139 666.447 854.912 666.932C855.685 667.417 856.293 668.106 856.736 669C857.179 669.894 857.401 670.955 857.401 672.182ZM856.037 672.182C856.037 671.174 855.868 670.324 855.531 669.631C855.198 668.938 854.745 668.413 854.173 668.057C853.605 667.701 852.969 667.523 852.264 667.523C851.56 667.523 850.922 667.701 850.35 668.057C849.781 668.413 849.329 668.938 848.992 669.631C848.658 670.324 848.492 671.174 848.492 672.182C848.492 673.189 848.658 674.04 848.992 674.733C849.329 675.426 849.781 675.951 850.35 676.307C850.922 676.663 851.56 676.841 852.264 676.841C852.969 676.841 853.605 676.663 854.173 676.307C854.745 675.951 855.198 675.426 855.531 674.733C855.868 674.04 856.037 673.189 856.037 672.182ZM869.806 666.364H871.215V674.068C871.215 674.864 871.028 675.574 870.653 676.199C870.282 676.82 869.757 677.311 869.079 677.67C868.401 678.027 867.606 678.205 866.693 678.205C865.78 678.205 864.984 678.027 864.306 677.67C863.628 677.311 863.102 676.82 862.727 676.199C862.356 675.574 862.17 674.864 862.17 674.068V666.364H863.579V673.955C863.579 674.523 863.704 675.028 863.954 675.472C864.204 675.911 864.56 676.258 865.022 676.511C865.488 676.761 866.045 676.886 866.693 676.886C867.34 676.886 867.897 676.761 868.363 676.511C868.829 676.258 869.185 675.911 869.431 675.472C869.681 675.028 869.806 674.523 869.806 673.955V666.364ZM522.255 700H520.778L525.051 688.364H526.505L530.778 700H529.301L525.823 690.205H525.732L522.255 700ZM522.801 695.455H528.755V696.705H522.801V695.455ZM534.99 700V688.364H538.922C539.831 688.364 540.577 688.519 541.161 688.83C541.744 689.136 542.176 689.559 542.456 690.097C542.737 690.634 542.877 691.246 542.877 691.932C542.877 692.617 542.737 693.225 542.456 693.756C542.176 694.286 541.746 694.703 541.166 695.006C540.587 695.305 539.846 695.455 538.945 695.455H535.763V694.182H538.899C539.521 694.182 540.021 694.091 540.399 693.909C540.782 693.727 541.059 693.47 541.229 693.136C541.403 692.799 541.49 692.398 541.49 691.932C541.49 691.466 541.403 691.059 541.229 690.71C541.055 690.362 540.776 690.093 540.394 689.903C540.011 689.71 539.505 689.614 538.877 689.614H536.399V700H534.99ZM540.468 694.773L543.331 700H541.695L538.877 694.773H540.468ZM547.625 700V688.364H554.647V689.614H549.034V693.545H554.284V694.795H549.034V698.75H554.738V700H547.625ZM565.487 688.364H567.101L570.328 693.795H570.464L573.692 688.364H575.305L571.101 695.205V700H569.692V695.205L565.487 688.364ZM588.799 694.182C588.799 695.409 588.578 696.47 588.134 697.364C587.691 698.258 587.083 698.947 586.311 699.432C585.538 699.917 584.655 700.159 583.663 700.159C582.67 700.159 581.788 699.917 581.015 699.432C580.242 698.947 579.634 698.258 579.191 697.364C578.748 696.47 578.526 695.409 578.526 694.182C578.526 692.955 578.748 691.894 579.191 691C579.634 690.106 580.242 689.417 581.015 688.932C581.788 688.447 582.67 688.205 583.663 688.205C584.655 688.205 585.538 688.447 586.311 688.932C587.083 689.417 587.691 690.106 588.134 691C588.578 691.894 588.799 692.955 588.799 694.182ZM587.436 694.182C587.436 693.174 587.267 692.324 586.93 691.631C586.596 690.938 586.144 690.413 585.572 690.057C585.004 689.701 584.367 689.523 583.663 689.523C582.958 689.523 582.32 689.701 581.748 690.057C581.18 690.413 580.727 690.938 580.39 691.631C580.057 692.324 579.89 693.174 579.89 694.182C579.89 695.189 580.057 696.04 580.39 696.733C580.727 697.426 581.18 697.951 581.748 698.307C582.32 698.663 582.958 698.841 583.663 698.841C584.367 698.841 585.004 698.663 585.572 698.307C586.144 697.951 586.596 697.426 586.93 696.733C587.267 696.04 587.436 695.189 587.436 694.182ZM601.205 688.364H602.614V696.068C602.614 696.864 602.426 697.574 602.051 698.199C601.68 698.82 601.156 699.311 600.478 699.67C599.8 700.027 599.004 700.205 598.091 700.205C597.178 700.205 596.383 700.027 595.705 699.67C595.027 699.311 594.5 698.82 594.125 698.199C593.754 697.574 593.568 696.864 593.568 696.068V688.364H594.978V695.955C594.978 696.523 595.103 697.028 595.353 697.472C595.603 697.911 595.959 698.258 596.421 698.511C596.887 698.761 597.443 698.886 598.091 698.886C598.739 698.886 599.296 698.761 599.762 698.511C600.228 698.258 600.584 697.911 600.83 697.472C601.08 697.028 601.205 696.523 601.205 695.955V688.364ZM614.728 700V688.364H618.66C619.569 688.364 620.315 688.519 620.898 688.83C621.482 689.136 621.913 689.559 622.194 690.097C622.474 690.634 622.614 691.246 622.614 691.932C622.614 692.617 622.474 693.225 622.194 693.756C621.913 694.286 621.483 694.703 620.904 695.006C620.324 695.305 619.584 695.455 618.682 695.455H615.501V694.182H618.637C619.258 694.182 619.758 694.091 620.137 693.909C620.519 693.727 620.796 693.47 620.966 693.136C621.141 692.799 621.228 692.398 621.228 691.932C621.228 691.466 621.141 691.059 620.966 690.71C620.792 690.362 620.514 690.093 620.131 689.903C619.749 689.71 619.243 689.614 618.614 689.614H616.137V700H614.728ZM620.205 694.773L623.069 700H621.432L618.614 694.773H620.205ZM627.362 700V688.364H634.385V689.614H628.771V693.545H634.021V694.795H628.771V698.75H634.476V700H627.362ZM639.802 700H638.325L642.597 688.364H644.052L648.325 700H646.847L643.37 690.205H643.279L639.802 700ZM640.347 695.455H646.302V696.705H640.347V695.455ZM656.128 700H652.537V688.364H656.287C657.416 688.364 658.382 688.597 659.185 689.062C659.988 689.525 660.603 690.189 661.032 691.057C661.46 691.92 661.674 692.955 661.674 694.159C661.674 695.371 661.458 696.415 661.026 697.29C660.594 698.161 659.965 698.831 659.139 699.301C658.314 699.767 657.31 700 656.128 700ZM653.946 698.75H656.037C656.999 698.75 657.797 698.564 658.429 698.193C659.062 697.822 659.533 697.294 659.844 696.608C660.155 695.922 660.31 695.106 660.31 694.159C660.31 693.22 660.157 692.411 659.85 691.733C659.543 691.051 659.085 690.528 658.475 690.165C657.865 689.797 657.105 689.614 656.196 689.614H653.946V698.75ZM664.89 688.364H666.504L669.731 693.795H669.868L673.095 688.364H674.709L670.504 695.205V700H669.095V695.205L664.89 688.364ZM680.499 696.727V696.659C680.507 695.936 680.582 695.36 680.726 694.932C680.87 694.504 681.075 694.157 681.34 693.892C681.605 693.627 681.923 693.383 682.295 693.159C682.518 693.023 682.719 692.862 682.897 692.676C683.075 692.487 683.215 692.269 683.317 692.023C683.423 691.777 683.476 691.504 683.476 691.205C683.476 690.833 683.389 690.511 683.215 690.239C683.041 689.966 682.808 689.756 682.516 689.608C682.225 689.46 681.901 689.386 681.545 689.386C681.234 689.386 680.935 689.451 680.647 689.58C680.359 689.708 680.118 689.911 679.925 690.188C679.732 690.464 679.62 690.826 679.59 691.273H678.158C678.189 690.629 678.355 690.078 678.658 689.619C678.965 689.161 679.368 688.811 679.868 688.568C680.372 688.326 680.931 688.205 681.545 688.205C682.211 688.205 682.791 688.337 683.283 688.602C683.779 688.867 684.162 689.231 684.431 689.693C684.704 690.155 684.84 690.682 684.84 691.273C684.84 691.689 684.776 692.066 684.647 692.403C684.522 692.741 684.34 693.042 684.101 693.307C683.867 693.572 683.582 693.807 683.249 694.011C682.916 694.22 682.649 694.439 682.448 694.67C682.247 694.898 682.101 695.169 682.01 695.483C681.92 695.797 681.87 696.189 681.863 696.659V696.727H680.499ZM681.226 700.091C680.946 700.091 680.706 699.991 680.505 699.79C680.304 699.589 680.204 699.348 680.204 699.068C680.204 698.788 680.304 698.547 680.505 698.347C680.706 698.146 680.946 698.045 681.226 698.045C681.507 698.045 681.747 698.146 681.948 698.347C682.149 698.547 682.249 698.788 682.249 699.068C682.249 699.254 682.202 699.424 682.107 699.58C682.016 699.735 681.893 699.86 681.738 699.955C681.586 700.045 681.416 700.091 681.226 700.091Z" fill="white"/>
</g>
<defs>
<clipPath id="clip0_1_129">
<rect width="1280" height="720" fill="white"/>
</clipPath>
</defs>
</svg>
